<?xml version="1.0" encoding="UTF-8"?>
<svg id="Layer_1" data-name="Layer 1" xmlns="http://www.w3.org/2000/svg" viewBox="0 0 24 24">
  <defs>
    <style>
      .cls-1 {
        fill: #fff;
      }
    </style>
  </defs>
  <g id="B74_Bulb_Business_Circle_Creative_Idea" data-name="B74 ,Bulb ,Business ,Circle ,Creative ,Idea">
    <g>
      <path class="cls-1" d="M12.12,4.61h0c-2.7,0-4.81,2.25-4.81,4.87,0,1.14.42,2.28,1.16,3.16.62.76,1.04,1.71,1.19,2.66-.42.15-.73.57-.73,1.07,0,.57.39,1.07.92,1.14v.23c0,.91.73,1.64,1.69,1.64h1.12c.92,0,1.66-.72,1.66-1.64v-.23c.54-.08.96-.57.96-1.14,0-.49-.31-.91-.73-1.07.19-.95.62-1.9,1.23-2.63.73-.88,1.16-2.02,1.16-3.16-.08-2.66-2.16-4.87-4.81-4.91ZM12.58,18.42h-1.08c-.39,0-.73-.3-.73-.69v-.69c0-.27-.19-.49-.46-.49h-.31c-.08,0-.15-.11-.15-.19s.08-.19.15-.19h3.93s.12,0,.15-.04h0c.08,0,.15.08.15.19s-.08.19-.15.19h-1.89c-.27,0-.5.23-.5.49s.23.49.5.49h1.08v.23c0,.38-.27.69-.69.69ZM14.96,12.03c-.04.08-.12.11-.15.19-.65.84-1.12,1.94-1.27,2.97h-.96v-3.92h.19c.27,0,.5-.23.5-.49s-.23-.49-.5-.49h-.15c.08-.27.35-.49.65-.49.27,0,.5-.23.5-.49s-.23-.49-.5-.49c-.46,0-.89.19-1.19.53-.31-.3-.73-.53-1.19-.53-.27,0-.5.23-.5.49s.23.49.5.49c.31,0,.58.19.65.49h-.15c-.27,0-.5.23-.5.49s.23.49.5.49h.31v3.96h-1c-.15-1.07-.58-2.13-1.23-2.97-.08-.08-.12-.15-.19-.23-.58-.72-.92-1.6-.92-2.55,0-2.13,1.73-3.92,3.81-3.92h.04c2.08,0,3.77,1.79,3.77,3.92-.08.95-.42,1.87-1,2.55Z"/>
      <path class="cls-1" d="M12.08,3.01c-.27,0-.5.23-.5.49s.23.49.5.49c4.5,0,8.2,3.62,8.2,8.11,0,2.82-1.46,5.4-3.93,6.89-.23.15-.31.42-.15.65s.42.3.65.15c2.66-1.6,4.35-4.49,4.35-7.73.04-5.02-4.08-9.06-9.13-9.06Z"/>
      <path class="cls-1" d="M12.08,20.14c-4.5,0-8.2-3.62-8.2-8.11,0-2.97,1.66-5.67,4.27-7.12.23-.11.31-.42.19-.65-.12-.23-.42-.3-.65-.19-2.93,1.6-4.77,4.64-4.77,7.95,0,4.99,4.12,9.06,9.16,9.06.27,0,.5-.23.5-.49s-.23-.46-.5-.46Z"/>
      <path class="cls-1" d="M16.93,17.32c1.5-1.37,2.39-3.27,2.39-5.29,0-.27-.23-.49-.5-.49s-.5.23-.5.49c0,1.75-.77,3.43-2.08,4.61-.19.19-.23.49-.04.69.19.15.5.19.73,0Z"/>
      <path class="cls-1" d="M6.11,8.95c-.23-.11-.54,0-.62.23-1.23,2.82-.5,6.13,1.77,8.15.19.19.5.15.69-.04.19-.19.15-.49-.04-.69-2-1.79-2.62-4.64-1.54-7.08.08-.19-.04-.49-.27-.57Z"/>
      <path class="cls-1" d="M12.08,1.11C5.96,1.11.99,6.02.99,12.07s4.97,10.96,11.09,10.96,11.09-4.91,11.09-10.96S18.2,1.11,12.08,1.11ZM12.08,22.04c-5.58,0-10.09-4.49-10.09-10.01S6.49,2.06,12.08,2.06s10.13,4.45,10.13,9.97-4.54,10.01-10.13,10.01Z"/>
    </g>
  </g>
</svg>